# xmcd
#
# Track frame offsets:
# 150
# 15487
# 37352
# 52984
# 66163
# 81187
# 96884
# 113099
# 133268
# 148596
# 165351
# 178505
# 195904
# 212678
#
# Disc length: 3166 seconds
#
# Revision: 0
# Processed by: cddbd v1.5.1PL0 Copyright (c) Steve Scherf et al.
# Submitted via: Coin'sHifi 0.9 coinshifi@hotmail.fr
#
DISCID=bd0c5c0e
DTITLE=Liz Phair - Liz Phair
DYEAR=2003
DGENRE=blues
TTITLE0=Extraordinary
TTITLE1=Red Light Fever
TTITLE2=Why Can't I
TTITLE3=It's Sweet
TTITLE4=Rock Me
TTITLE5=Take A Look
TTITLE6=Little Digger
TTITLE7=Firewalker
TTITLE8=Favorite
TTITLE9=Love Hate
TTITLE10=H.W.C.
TTITLE11=My Bionic Eyes
TTITLE12=Friend Of Mine
TTITLE13=Good Love Never Dies
EXTD=
EXTT0=
EXTT1=
EXTT2=
EXTT3=
EXTT4=
EXTT5=
EXTT6=
EXTT7=
EXTT8=
EXTT9=
EXTT10=
EXTT11=
EXTT12=
EXTT13=
PLAYORDER=
